<?xml version="1.0" standalone="no"?>
<!DOCTYPE svg PUBLIC "-//W3C//DTD SVG 20010904//EN"
 "http://www.w3.org/TR/2001/REC-SVG-20010904/DTD/svg10.dtd">
<svg version="1.0" xmlns="http://www.w3.org/2000/svg"
 width="1042.000000pt" height="1042.000000pt" viewBox="0 0 1042.000000 1042.000000"
 preserveAspectRatio="xMidYMid meet">
<metadata>
Created by potrace 1.11, written by Peter Selinger 2001-2013
</metadata>
<g transform="translate(0.000000,1042.000000) scale(0.100000,-0.100000)"
fill="#000000" stroke="none">
<path d="M4225 8119 c-540 -24 -1027 -110 -1690 -300 -314 -90 -426 -126 -575
-184 -74 -29 -182 -67 -240 -85 -214 -66 -284 -109 -392 -242 -82 -101 -134
-184 -222 -354 -138 -266 -257 -683 -323 -1129 -15 -101 -18 -189 -18 -550 0
-463 8 -580 52 -789 71 -342 195 -674 358 -961 47 -82 84 -157 83 -165 -3 -13
-75 -16 -557 -20 l-553 -5 -19 -24 c-22 -27 -24 -41 -6 -64 11 -16 55 -19 487
-27 646 -13 735 -17 763 -40 l22 -18 -45 -12 c-32 -9 -138 -11 -372 -9 -353 4
-362 3 -341 -44 19 -41 77 -48 503 -57 464 -11 694 -29 748 -59 30 -17 -55
-20 -743 -30 -396 -5 -686 -13 -710 -20 -22 -5 -45 -18 -52 -27 -13 -17 -9
-50 7 -67 19 -21 198 -28 1060 -42 893 -15 1153 -24 1232 -46 40 -10 55 -24
38 -34 -6 -3 -338 -11 -738 -16 -897 -12 -1059 -18 -1078 -44 -21 -28 -17 -44
12 -55 15 -6 200 -10 447 -11 516 -1 1061 -14 1222 -28 66 -6 327 -17 580 -26
464 -15 531 -20 640 -48 97 -25 210 -44 390 -67 113 -14 182 -27 205 -39 146
-78 111 -71 380 -77 135 -4 261 -10 281 -14 52 -11 157 7 212 35 91 48 219 66
782 111 397 32 1074 43 1480 25 435 -19 1025 -33 1110 -26 45 3 88 10 96 15
24 15 -11 39 -72 50 -57 10 -428 24 -1069 40 -212 5 -398 13 -415 18 -47 13
-44 39 7 54 34 10 174 12 673 8 347 -3 863 -5 1148 -5 500 0 519 1 533 19 16
23 5 41 -29 49 -38 10 -267 36 -407 46 -232 17 -304 21 -725 36 -413 15 -475
20 -475 36 0 41 272 59 1175 78 400 8 455 14 455 45 0 37 -212 64 -708 91
-150 8 -277 17 -282 20 -16 10 1 33 37 50 42 20 100 22 1056 34 481 7 662 12
670 21 9 9 5 17 -15 35 -35 30 -70 33 -653 45 -458 10 -906 27 -914 35 -2 2
44 100 102 217 128 256 161 338 226 556 109 364 120 421 152 752 36 384 19
828 -47 1210 -45 262 -93 466 -150 635 -37 111 -182 397 -240 474 -95 127
-218 205 -479 306 -65 25 -178 71 -250 102 -71 31 -166 68 -210 83 -44 16
-132 48 -195 73 -538 209 -1307 397 -1785 437 -356 29 -1181 39 -1630 19z
m1585 -169 c58 -5 147 -15 199 -22 l94 -12 33 -45 c72 -99 214 -362 263 -488
20 -52 20 -53 1 -63 -24 -13 -184 -13 -247 0 -136 28 -642 61 -1170 75 -301 8
-570 18 -597 22 -33 4 -57 14 -71 29 -25 27 -214 425 -218 457 -3 33 57 48
238 57 205 11 1337 3 1475 -10z m-1895 -53 c78 -44 195 -256 328 -592 138
-349 224 -647 292 -1005 42 -221 59 -400 76 -811 14 -312 3 -658 -26 -887 -16
-123 -116 -555 -139 -601 -7 -14 -16 -46 -20 -71 -8 -49 -158 -496 -181 -538
-8 -15 -26 -58 -41 -97 -14 -38 -64 -146 -109 -240 -71 -144 -95 -183 -160
-257 -42 -49 -83 -88 -91 -88 -36 0 -25 44 32 127 34 50 128 237 198 396 137
310 236 588 261 728 8 51 31 154 50 229 83 323 95 534 39 669 -9 21 -18 31
-24 25 -13 -13 -36 -108 -61 -248 -24 -139 -136 -630 -175 -768 -111 -397
-300 -828 -456 -1041 -51 -68 -80 -93 -98 -82 -14 9 7 55 84 184 88 148 163
300 243 489 78 185 93 236 178 572 196 783 225 969 225 1452 0 340 -17 478
-121 972 -82 390 -187 682 -401 1116 -200 406 -185 367 -146 379 18 5 71 10
118 10 71 1 92 -3 125 -22z m2560 -31 c18 -8 47 -33 63 -55 42 -58 325 -621
368 -732 52 -135 152 -447 180 -564 32 -134 100 -568 115 -735 7 -77 13 -302
13 -525 l0 -390 -37 -247 c-79 -527 -127 -724 -253 -1043 -143 -360 -220 -522
-348 -725 -101 -162 -184 -260 -218 -260 -29 0 -21 20 40 100 109 140 218 337
337 605 148 335 282 745 288 884 4 86 -55 135 -87 72 -9 -16 -36 -102 -61
-192 -141 -507 -317 -929 -522 -1254 -100 -157 -153 -221 -176 -212 -24 9 -8
45 57 132 75 101 147 217 198 320 71 142 196 437 218 516 11 40 38 120 59 178
98 258 146 467 191 816 11 88 27 206 36 263 27 192 17 962 -17 1257 -15 134
-84 472 -125 615 -88 305 -243 686 -384 942 -33 60 -67 125 -75 144 -16 38
-20 86 -8 97 12 12 113 7 148 -7z m-2989 -45 c67 -41 237 -311 246 -391 5 -42
-45 -57 -313 -95 -134 -19 -299 -45 -366 -59 -192 -41 -218 -36 -295 56 -79
94 -218 282 -218 295 0 33 128 82 333 128 282 64 390 82 497 84 67 1 92 -3
116 -18z m3339 -20 c127 -27 522 -153 599 -191 35 -18 91 -53 123 -78 54 -44
64 -59 141 -212 56 -111 83 -178 85 -205 2 -38 1 -40 -30 -43 -42 -4 -400 59
-554 98 -191 48 -180 39 -280 230 -47 91 -111 212 -141 270 -31 58 -59 115
-63 128 -8 28 1 28 120 3z m-4408 -230 c52 -38 174 -173 243 -269 70 -98 199
-339 207 -386 7 -43 -11 -75 -61 -106 -54 -33 -70 -22 -120 83 -24 51 -62 130
-84 177 -22 47 -66 121 -98 165 -100 138 -204 307 -204 331 0 43 61 45 117 5z
m-262 -74 c49 -27 193 -190 224 -252 26 -52 23 -88 -10 -105 -16 -9 -26 -8
-45 5 -45 29 -244 320 -244 356 0 25 26 24 75 -4z m5718 -48 c43 -28 107 -101
107 -122 0 -5 15 -35 34 -66 59 -97 176 -416 176 -480 0 -24 -5 -30 -30 -35
-47 -9 -128 12 -144 37 -17 27 -76 192 -111 312 -29 100 -62 200 -94 288 -22
59 -21 97 3 97 7 0 33 -14 59 -31z m-5958 -23 c63 -27 126 -77 143 -114 9 -21
38 -64 65 -97 46 -58 182 -319 207 -399 13 -39 12 -40 -23 -73 -68 -61 -86
-45 -160 149 -62 159 -142 286 -260 412 -53 58 -97 109 -97 114 0 24 75 29
125 8z m6286 -106 c68 -35 114 -91 179 -221 84 -168 79 -204 -26 -184 -53 10
-89 49 -138 150 -52 110 -76 183 -76 237 0 44 6 46 61 18z m-6641 -24 c0 -8
-20 -39 -44 -69 -105 -128 -279 -466 -345 -667 -52 -158 -73 -251 -112 -475
-17 -99 -33 -183 -35 -187 -2 -3 -11 -132 -19 -285 -19 -357 -23 -408 -42
-523 -9 -58 -14 -132 -11 -195 4 -95 6 -105 50 -195 35 -72 59 -145 98 -300
63 -251 113 -402 195 -587 74 -169 137 -279 211 -369 30 -37 53 -72 51 -78 -2
-6 -17 -12 -34 -14 -25 -2 -45 9 -106 58 -104 83 -116 99 -201 273 -137 278
-228 551 -300 902 -40 192 -46 278 -46 685 0 526 12 644 96 983 93 371 168
562 310 794 100 163 147 221 197 244 50 22 87 24 87 5z m3690 -26 c311 -17
579 -38 810 -65 354 -42 442 -65 480 -127 45 -73 139 -403 160 -562 6 -45 17
-103 25 -131 7 -27 16 -69 20 -92 l7 -43 -180 0 c-99 0 -214 4 -254 10 -83 11
-591 35 -1058 50 -396 13 -568 26 -597 46 -13 8 -25 24 -27 37 -30 142 -44
202 -78 322 -21 77 -64 219 -94 314 -63 202 -66 242 -19 253 38 9 545 1 805
-12z m-3439 -33 c19 -12 57 -57 86 -100 167 -253 372 -947 377 -1275 1 -108 5
-103 -118 -175 -81 -46 -942 -467 -999 -488 -33 -12 -39 -11 -47 1 -24 38 1
497 41 770 25 172 46 262 115 485 97 314 148 434 251 595 67 104 125 166 178
191 52 24 75 24 116 -4z m2030 -28 c45 -59 168 -391 223 -603 28 -107 48 -239
40 -260 -3 -9 -24 -17 -47 -20 -89 -11 -695 -56 -758 -56 -103 0 -103 0 -193
298 -26 85 -74 222 -107 305 -81 201 -84 213 -65 242 18 28 55 37 277 66 285
36 502 58 558 55 43 -2 57 -8 72 -27z m4709 -45 c117 -78 260 -286 264 -382 1
-41 -2 -47 -30 -64 -17 -10 -49 -19 -70 -21 -36 -2 -40 0 -66 48 -15 28 -39
88 -54 135 -15 47 -44 127 -66 179 -49 115 -42 147 22 105z m-1105 -178 c377
-84 395 -91 436 -182 41 -91 129 -516 129 -624 l0 -70 -87 0 c-122 0 -521 48
-590 71 -38 12 -51 46 -112 299 -22 91 -60 232 -85 313 -57 186 -62 213 -45
233 20 24 108 14 354 -40z m-4933 15 c47 -37 131 -230 202 -466 63 -206 65
-281 9 -325 -36 -28 -60 -25 -82 10 -10 17 -41 117 -70 223 -56 203 -105 345
-152 439 -38 76 -38 101 4 122 42 20 59 20 89 -3z m5951 -255 c55 -24 68 -40
86 -106 10 -36 32 -112 49 -170 46 -155 83 -338 80 -389 l-3 -46 -63 -3 c-110
-5 -122 17 -212 415 -27 120 -50 239 -50 266 l0 47 40 0 c22 0 55 -6 73 -14z
m-5556 -46 c62 -38 110 -151 173 -409 76 -310 100 -520 100 -868 0 -336 -15
-614 -41 -743 -46 -232 -141 -577 -200 -727 -75 -189 -246 -492 -398 -705 -84
-118 -165 -207 -178 -195 -9 10 12 46 108 185 90 129 249 403 285 489 27 66
31 103 10 103 -29 0 -66 -44 -104 -123 -83 -174 -352 -567 -388 -567 -27 0
-22 9 90 165 32 44 70 105 85 135 15 30 51 96 80 145 78 132 204 387 239 485
126 347 212 851 212 1245 -1 407 -33 677 -140 1150 -33 148 -34 203 -4 236 21
24 31 24 71 -1z m-522 -86 c72 -77 169 -516 195 -874 22 -320 6 -796 -34 -985
-54 -257 -133 -551 -176 -650 -12 -28 -33 -81 -47 -120 -33 -89 -112 -247
-225 -449 -109 -195 -154 -261 -207 -309 -75 -67 -85 -37 -15 45 70 81 139
191 204 323 86 176 124 303 75 254 -7 -8 -50 -77 -95 -154 -108 -186 -215
-335 -241 -335 -12 0 7 38 66 125 59 88 264 498 293 585 11 36 36 110 55 165
54 154 102 400 144 735 14 115 18 213 17 470 -1 412 -26 692 -86 960 -24 108
-20 172 13 214 26 32 34 32 64 0z m5815 11 c20 -10 34 -30 48 -67 44 -119 93
-311 113 -440 5 -40 17 -93 24 -118 33 -104 66 -520 66 -830 0 -211 -13 -399
-42 -580 -25 -157 -144 -663 -163 -693 -8 -12 -20 -42 -26 -67 -7 -25 -26 -74
-42 -110 -17 -36 -41 -96 -54 -134 -13 -38 -34 -83 -47 -100 -13 -17 -29 -47
-36 -67 -36 -111 -349 -569 -388 -569 -19 0 -22 -5 73 135 109 162 206 327
270 460 60 122 67 158 32 153 -17 -2 -39 -35 -99 -148 -162 -304 -354 -600
-389 -600 -18 0 -11 14 41 85 111 154 232 368 315 560 72 168 189 536 245 770
87 370 126 706 115 995 -14 371 -39 600 -92 825 -50 216 -84 391 -84 438 0 98
48 139 120 102z m639 -20 c46 -23 77 -69 105 -152 137 -417 194 -861 183
-1421 -8 -453 -55 -689 -219 -1117 -153 -399 -262 -570 -442 -696 -68 -48 -96
-59 -96 -39 0 17 45 121 137 315 185 391 260 645 312 1060 33 260 43 425 44
695 0 361 -26 618 -98 969 -51 250 -59 305 -45 346 18 55 63 70 119 40z
m-3674 -415 c165 -6 359 -15 430 -20 72 -5 283 -17 470 -25 370 -17 609 -39
666 -62 63 -25 71 -66 91 -458 19 -381 18 -412 -11 -436 -14 -11 -40 -19 -65
-20 -68 -2 -91 -12 -91 -39 0 -21 11 -30 61 -55 74 -36 94 -52 94 -75 0 -20
-36 -37 -100 -45 -114 -14 -483 -23 -600 -14 -69 5 -379 13 -690 18 -343 6
-579 14 -600 20 -34 10 -68 47 -55 59 4 4 379 7 833 7 807 0 828 0 867 20 47
23 56 49 24 66 -17 8 -212 14 -733 20 -650 7 -981 19 -997 37 -4 4 -11 104
-18 222 -6 118 -21 329 -33 468 -15 173 -19 261 -12 280 16 45 39 46 469 32z
m-1021 -25 c28 -29 48 -179 67 -505 12 -218 7 -532 -11 -591 -17 -61 -24 -62
-379 -49 -407 15 -470 21 -494 51 -29 36 -8 43 85 28 57 -10 172 -14 368 -14
257 0 289 2 322 18 47 24 58 54 29 78 -29 24 -140 37 -455 54 -147 8 -279 17
-292 20 -13 3 -35 7 -48 10 -13 3 -26 14 -30 27 -4 13 -11 113 -16 223 -5 110
-19 274 -30 365 -24 198 -24 230 -6 256 13 17 36 20 278 30 418 17 594 17 612
-1z m-1355 -111 c13 -9 29 -32 37 -50 19 -46 41 -261 50 -481 l7 -181 -26 -26
c-43 -43 -105 -29 -135 30 -6 12 -16 106 -22 210 -6 104 -15 232 -20 284 -5
52 -10 120 -10 151 0 48 3 57 23 67 33 16 69 14 96 -4z m4936 -49 c252 -40
316 -63 347 -125 28 -55 51 -326 52 -610 1 -219 -1 -249 -17 -273 -9 -15 -30
-30 -45 -34 -15 -5 -174 -8 -354 -8 -298 0 -329 2 -345 17 -35 36 -6 41 249
49 250 7 320 18 326 50 2 9 -5 20 -15 24 -10 4 -128 11 -263 16 -135 6 -258
13 -274 17 -21 6 -32 16 -38 37 -9 34 -28 812 -20 835 3 8 12 23 21 34 20 24
73 20 376 -29z m977 -155 c28 -34 37 -83 49 -250 14 -194 8 -394 -12 -435 -12
-26 -20 -30 -60 -33 -72 -5 -97 9 -103 60 -8 55 -23 309 -32 510 l-7 158 24
10 c40 17 120 6 141 -20z m-6416 -242 c11 -18 7 -124 -6 -148 -17 -32 -132
-94 -663 -361 -350 -175 -507 -249 -525 -247 -22 2 -28 9 -33 40 -14 89 66
194 179 233 26 9 63 25 82 36 73 42 837 420 885 439 60 23 71 24 81 8z m-6
-385 c-13 -403 -62 -678 -188 -1060 -89 -267 -180 -461 -277 -591 -57 -76 -98
-102 -158 -102 -41 0 -49 4 -85 45 -48 54 -131 189 -167 270 -98 222 -255 749
-259 869 -1 44 2 51 36 80 20 17 62 42 95 56 32 13 141 64 243 113 102 49 259
124 350 166 91 43 184 90 208 105 61 38 203 73 202 49z m545 -47 c31 -13 35
-19 35 -51 0 -43 -23 -55 -105 -55 -61 0 -72 13 -55 65 17 51 64 66 125 41z
m5887 -119 c33 -21 35 -57 3 -84 -23 -20 -36 -23 -84 -21 l-56 3 1 44 c1 58
31 86 82 76 19 -3 43 -12 54 -18z m-5886 -158 c19 -16 17 -49 -3 -71 -24 -27
-75 -23 -112 8 -58 49 -29 89 58 79 24 -3 50 -10 57 -16z m1159 -29 c165 -15
226 -48 179 -95 -15 -15 -29 -16 -88 -11 -39 4 -114 12 -166 17 -52 5 -197 12
-322 15 -214 7 -228 6 -234 -11 -11 -29 36 -61 116 -79 39 -9 169 -23 288 -31
270 -19 371 -30 384 -43 14 -14 -35 -59 -73 -67 -30 -7 -59 -29 -59 -46 0 -5
20 -29 45 -53 37 -36 45 -51 45 -80 l0 -36 -77 0 c-43 0 -105 4 -138 10 -33 5
-179 25 -325 45 -146 20 -280 40 -299 47 l-34 10 6 102 c7 114 28 221 54 275
15 30 25 37 58 43 54 9 491 1 640 -12z m2010 -50 c487 -13 710 -26 760 -42 32
-10 41 -18 43 -40 5 -38 -14 -44 -157 -52 -130 -8 -171 -17 -171 -39 0 -21 40
-35 163 -57 163 -29 151 -21 143 -94 -11 -94 -36 -209 -51 -233 -17 -25 -50
-29 -310 -38 -184 -7 -218 -11 -212 -29 8 -25 87 -38 267 -45 113 -5 194 -12
208 -20 29 -15 30 -69 2 -99 -43 -46 -75 -54 -259 -63 -430 -22 -1609 -8
-1762 21 -116 22 -85 54 46 45 373 -23 1419 -41 1615 -28 98 7 115 11 118 25
2 12 -6 21 -23 28 -48 18 -303 30 -875 40 -540 10 -791 21 -854 38 -34 9 -56
37 -41 51 6 5 37 5 79 -1 39 -5 273 -8 530 -6 408 3 465 5 499 20 42 19 48 35
15 42 -13 3 -149 7 -303 11 -350 7 -642 22 -720 36 -100 18 -127 49 -87 99 22
27 57 28 266 5 215 -23 652 -38 1142 -39 479 -1 494 0 494 40 0 54 -197 69
-1115 84 -352 6 -662 14 -690 18 -46 7 -50 10 -53 36 -2 16 -1 39 2 52 l6 24
593 -6 c614 -6 806 0 834 29 14 13 13 16 -5 26 -28 15 -226 28 -677 46 -387
15 -639 31 -683 42 -34 8 -48 40 -26 64 16 18 36 19 443 19 234 0 597 -5 806
-10z m2723 -26 c11 -15 13 -43 8 -129 -8 -165 -19 -189 -93 -210 -67 -19 -137
31 -115 81 13 26 37 40 93 48 39 7 78 30 67 42 -4 3 -31 12 -59 18 -29 7 -57
20 -63 28 -13 21 18 123 42 138 26 16 103 5 120 -16z m-676 4 c50 -15 72 -45
59 -81 -18 -48 -35 -51 -358 -55 -310 -5 -377 -1 -409 22 -16 12 -17 18 -6 54
7 23 18 45 25 49 28 18 633 28 689 11z m-5254 -78 c37 -23 44 -63 13 -80 -37
-19 -100 -12 -126 14 -25 25 -25 44 -2 74 14 18 78 14 115 -8z m5272 -184 c0
-27 -6 -48 -15 -56 -11 -9 -93 -15 -283 -21 -395 -12 -462 -3 -462 61 0 16 6
32 13 37 14 9 252 19 545 21 l202 2 0 -44z m-5315 0 c37 -16 47 -50 23 -74
-18 -18 -113 -15 -132 4 -19 18 -21 55 -4 72 16 16 71 15 113 -2z m-51 -146
c28 -10 35 -37 12 -46 -16 -6 -86 21 -86 34 0 23 31 29 74 12z m5314 -12 c18
-18 14 -62 -8 -86 -20 -22 -33 -25 -155 -42 -94 -14 -488 -25 -547 -16 l-48 7
0 48 c0 89 -13 86 323 86 163 0 299 3 303 8 12 12 119 8 132 -5z m648 -13 c20
-31 13 -135 -12 -173 -16 -25 -86 -61 -118 -62 -27 0 -66 39 -66 66 0 41 41
159 62 177 13 11 37 17 69 17 41 0 51 -4 65 -25z m-5283 -40 c67 -8 234 -26
371 -40 137 -14 259 -28 272 -31 41 -10 41 -64 1 -64 -12 0 -112 9 -222 20
-231 24 -348 24 -353 -1 -6 -32 69 -49 333 -79 99 -11 195 -23 214 -27 l35 -6
-23 -18 c-35 -28 -82 -33 -219 -19 -348 33 -590 72 -627 102 -29 22 -27 40 11
126 27 61 20 60 207 37z m-670 -78 c16 -11 16 -14 2 -35 -19 -26 -53 -29 -95
-7 -31 16 -39 40 -17 48 24 10 94 7 110 -6z m5257 -116 c0 -21 -6 -44 -14 -50
-22 -19 -504 -71 -654 -71 -87 0 -106 13 -97 63 4 21 16 42 26 48 11 5 99 14
197 20 97 5 236 13 307 18 72 4 154 9 183 10 l52 1 0 -39z m-5312 5 c12 -12
13 -18 3 -30 -11 -12 -19 -13 -55 -2 -23 7 -51 18 -62 24 -18 10 -18 11 6 21
31 13 89 6 108 -13z m-38 -103 c24 -23 -14 -46 -65 -39 -49 6 -74 34 -48 54
22 16 91 7 113 -15z m5967 -30 c9 -23 -29 -51 -82 -59 -94 -14 -128 22 -52 56
54 25 125 27 134 3z m-5137 -38 c482 -39 492 -40 507 -61 21 -29 12 -57 -27
-77 -42 -22 -107 -19 -290 12 -69 11 -210 34 -315 51 -104 17 -207 35 -227 41
-41 10 -49 31 -20 49 18 12 59 10 372 -15z m-912 -51 c32 -21 23 -38 -21 -42
-41 -4 -81 26 -70 54 7 19 53 13 91 -12z m5366 -6 c15 -25 -3 -50 -46 -65 -65
-21 -629 -62 -682 -49 -20 5 -26 12 -26 35 0 18 6 31 17 35 10 4 96 16 193 26
406 45 524 48 544 18z m-1714 -57 c223 -4 413 -11 423 -15 24 -12 21 -53 -5
-70 -13 -7 -61 -16 -107 -19 -129 -8 -139 -42 -18 -57 75 -9 87 -14 87 -39 0
-45 -8 -46 -479 -49 -351 -2 -527 1 -826 17 -520 28 -716 42 -742 52 -20 7
-21 12 -12 33 20 43 41 45 234 25 328 -34 1290 -52 1348 -25 26 12 21 23 -15
30 -47 8 -383 24 -893 41 -399 14 -556 25 -607 41 -18 5 -24 25 -11 37 8 9
1089 7 1623 -2z m-3087 -36 c91 -25 292 -46 544 -54 140 -5 249 -13 255 -19
21 -21 -41 -217 -71 -227 -18 -5 -55 -2 -330 30 -167 20 -241 20 -241 0 0 -8
11 -22 24 -30 51 -34 288 -85 393 -85 56 0 107 -19 116 -43 8 -22 -24 -78 -57
-98 -34 -21 -97 -24 -161 -9 -22 5 -89 14 -150 21 -154 15 -575 107 -610 133
-15 11 -13 18 18 76 18 36 60 115 92 175 83 159 81 158 178 130z m5403 0 c12
-29 -16 -45 -77 -45 -47 0 -59 3 -59 15 0 35 124 61 136 30z m-6008 -37 c6 -6
12 -19 12 -29 0 -15 -7 -19 -31 -19 -55 0 -113 48 -76 64 17 7 79 -3 95 -16z
m5352 -56 c0 -32 -178 -65 -519 -97 -191 -17 -211 -18 -231 -5 -13 8 -13 11 0
23 23 22 87 34 290 56 281 31 460 40 460 23z m589 -46 c17 -20 -11 -38 -69
-44 -41 -4 -51 -1 -56 13 -5 12 -1 23 11 31 24 18 99 18 114 0z m-5996 -23
c12 -7 8 -40 -6 -51 -9 -8 -24 -8 -49 -2 -42 12 -63 33 -54 55 5 13 15 15 53
9 27 -3 51 -8 56 -11z m2622 -108 c209 -9 605 -18 880 -21 275 -3 510 -7 523
-10 37 -7 28 -40 -15 -56 -94 -33 -1620 5 -1920 48 -54 8 -78 25 -69 49 6 16
16 17 114 11 59 -4 278 -13 487 -21z m3309 12 c17 -12 14 -15 -28 -31 -49 -19
-87 -18 -94 2 -4 13 51 41 84 42 11 0 28 -6 38 -13z m-5990 -27 c18 -18 19
-22 6 -30 -23 -15 -83 -12 -108 6 -18 13 -20 19 -11 36 9 17 18 19 51 15 23
-3 50 -15 62 -27z m5362 20 c24 -10 26 -14 21 -51 -7 -51 -44 -92 -99 -108
-23 -7 -51 -19 -62 -26 -12 -7 -55 -16 -96 -19 -41 -4 -122 -16 -179 -27 -111
-21 -328 -36 -356 -25 -17 6 -17 8 -1 25 20 22 91 37 246 51 63 6 164 20 225
31 60 10 127 19 150 19 54 0 112 17 119 35 3 8 -2 22 -11 31 -19 18 -41 17
-238 -10 -160 -23 -410 -32 -420 -17 -4 8 -1 20 8 29 13 12 59 19 199 29 101
7 219 19 263 27 98 17 194 20 231 6z m614 -100 c0 -19 -61 -41 -107 -38 -51 3
-68 23 -31 37 31 13 138 14 138 1z m-6066 -39 c21 -23 18 -54 -6 -59 -24 -5
-87 25 -95 44 -13 35 71 48 101 15z m2491 -21 c99 -5 482 -14 850 -20 724 -12
788 -16 793 -41 2 -9 -5 -19 -14 -23 -60 -23 -948 -34 -1288 -16 -290 15 -720
59 -747 76 -6 4 -4 13 8 26 17 19 26 20 118 14 55 -4 181 -11 280 -16z m3495
-43 c0 -29 -44 -92 -120 -172 -40 -42 -62 -76 -74 -113 -19 -55 -60 -93 -117
-107 -57 -14 -48 16 52 167 32 49 59 97 59 105 0 15 15 34 81 105 31 32 43 38
78 38 36 0 41 -3 41 -23z m-6090 -46 c45 -24 46 -47 2 -45 -38 2 -82 28 -82
49 0 21 38 19 80 -4z m809 -26 c97 -18 262 -45 366 -60 310 -41 338 -50 290
-95 -47 -44 -144 -37 -567 46 -330 65 -393 87 -358 129 19 23 76 19 269 -20z
m1711 -48 c194 -18 286 -21 925 -22 391 0 717 -5 724 -10 11 -6 9 -10 -10 -18
-39 -15 -1180 -22 -1461 -8 -278 14 -501 35 -543 51 -29 11 -29 12 -11 26 22
16 30 15 376 -19z m-2573 -23 c27 -17 22 -34 -9 -34 -23 0 -78 36 -78 52 0 14
57 2 87 -18z m5460 -1 c6 -17 -53 -31 -212 -48 -76 -9 -179 -24 -229 -35 -112
-25 -246 -27 -246 -5 0 24 37 33 293 69 246 35 387 41 394 19z m-4722 -79 c77
-19 253 -50 390 -70 298 -42 325 -48 325 -73 0 -28 -56 -71 -92 -71 -37 0
-583 111 -723 147 -55 14 -110 32 -122 39 -22 14 -31 53 -16 68 11 11 76 0
238 -40z m-820 9 c42 -20 46 -43 8 -43 -31 0 -93 34 -93 50 0 15 45 12 85 -7z
m3335 -32 c624 -5 873 -10 893 -19 40 -17 35 -45 -33 -156 -123 -202 -221
-320 -298 -358 -43 -21 -64 -23 -247 -28 -287 -7 -848 6 -1070 25 -381 32
-615 76 -615 115 0 19 22 19 171 -5 174 -27 365 -48 644 -71 216 -17 832 -30
918 -20 55 7 109 37 94 52 -4 4 -98 11 -210 15 -897 34 -1011 40 -1266 74
-247 33 -279 42 -265 78 9 25 49 28 147 13 215 -35 667 -63 1152 -72 324 -7
453 0 478 25 22 22 -54 32 -302 41 -678 26 -1056 54 -1291 96 -85 16 -115 28
-104 45 10 17 268 9 564 -16 355 -30 474 -31 826 -5 316 23 410 35 441 56 45
29 16 37 -111 30 -334 -18 -572 -18 -872 -2 -170 9 -385 21 -479 26 -183 10
-267 23 -285 46 -22 25 26 35 145 28 61 -3 499 -9 975 -13z m2128 -32 c5 -25
-45 -77 -97 -103 -60 -30 -142 -52 -271 -71 -58 -9 -152 -28 -208 -41 -116
-27 -176 -31 -170 -11 6 16 86 38 348 93 233 50 280 65 280 88 0 25 -89 20
-290 -14 -238 -41 -324 -39 -257 4 14 9 63 17 132 21 112 7 163 14 295 39 102
20 234 17 238 -5z m-4741 -93 c167 -51 231 -64 541 -110 152 -23 171 -39 88
-77 -68 -31 -136 -23 -443 52 -309 75 -446 130 -430 172 10 27 51 21 244 -37z
m4571 -120 c5 -25 -22 -51 -71 -70 -69 -26 -477 -123 -547 -130 -50 -5 -70 -4
-85 8 -20 14 -20 15 4 40 28 30 105 56 165 56 44 0 175 29 381 84 72 20 135
34 140 32 6 -1 12 -10 13 -20z"/>
<path d="M140 3065 c-22 -26 5 -73 50 -86 66 -20 241 16 240 49 -1 35 -60 50
-196 51 -61 1 -85 -3 -94 -14z"/>
<path d="M2465 2380 c-104 -5 -125 -11 -125 -36 0 -43 136 -59 635 -76 401
-14 850 -16 937 -4 65 8 111 37 91 57 -21 22 -108 28 -601 43 -590 19 -805 23
-937 16z"/>
<path d="M5778 2283 c-60 -2 -108 -7 -108 -11 1 -31 42 -49 141 -62 174 -21
1501 -50 1670 -36 104 9 123 18 92 45 -50 42 -334 58 -1128 64 -308 2 -608 2
-667 0z"/>
</g>
</svg>
